<svg width="649" height="565" viewBox="0 0 649 565" fill="none" xmlns="http://www.w3.org/2000/svg">
<path d="M195 363.699H313.391V238L439 419.473H313.391V551L195 363.699Z" fill="#040404" stroke="black" stroke-width="8"/>
<mask id="path-2-inside-1_67_4" fill="white">
<path fill-rule="evenodd" clip-rule="evenodd" d="M494.476 423.707C579.817 423.707 649 352.57 649 264.817C649 177.064 579.817 105.927 494.476 105.927C458.747 105.927 425.85 118.396 399.676 139.333C370.876 58.0451 295.046 0 206.032 0C92.2435 0 0 94.8501 0 211.854C0 327.087 89.4728 420.831 200.881 423.642V423.707H494.476Z"/>
</mask>
<path d="M399.676 139.333L339.35 160.706L369.396 245.512L439.654 189.31L399.676 139.333ZM200.881 423.642H264.881V361.237L202.495 359.663L200.881 423.642ZM200.881 423.707H136.881V487.707H200.881V423.707ZM585 264.817C585 318.916 542.802 359.707 494.476 359.707V487.707C616.833 487.707 713 386.223 713 264.817H585ZM494.476 169.927C542.802 169.927 585 210.718 585 264.817H713C713 143.411 616.833 41.9268 494.476 41.9268V169.927ZM439.654 189.31C455.019 177.02 473.953 169.927 494.476 169.927V41.9268C443.54 41.9268 396.681 59.7719 359.698 89.3557L439.654 189.31ZM206.032 64C266.182 64 319.001 103.271 339.35 160.706L460.002 117.96C422.751 12.8187 323.911 -64 206.032 -64V64ZM64 211.854C64 128.503 129.259 64 206.032 64V-64C55.2279 -64 -64 61.1967 -64 211.854H64ZM202.495 359.663C127.315 357.766 64 293.911 64 211.854H-64C-64 360.262 51.6306 483.897 199.267 487.622L202.495 359.663ZM264.881 423.707V423.642H136.881V423.707H264.881ZM494.476 359.707H200.881V487.707H494.476V359.707Z" fill="black" mask="url(#path-2-inside-1_67_4)"/>
</svg>
