<?xml version="1.0" standalone="no"?><!DOCTYPE svg PUBLIC "-//W3C//DTD SVG 1.1//EN" "http://www.w3.org/Graphics/SVG/1.1/DTD/svg11.dtd"><svg class="icon" width="200px" height="200.00px" viewBox="0 0 1024 1024" version="1.1" xmlns="http://www.w3.org/2000/svg"><path d="M737.194667 111.488a42.666667 42.666667 0 0 1 80.64 27.434667l-1.621334 4.693333-111.36 273.92 28.032 7.466667c44.8 11.989333 82.090667 48.384 89.173334 98.048 6.058667 42.666667 11.733333 107.52 3.925333 174.336-7.765333 66.218667-29.44 139.861333-83.072 193.962666-19.712 19.882667-48 23.04-67.114667 23.381334-21.802667 0.341333-46.933333-2.986667-72.746666-8.106667-51.882667-10.325333-114.133333-29.44-172.970667-49.749333l-17.664-6.186667-34.688-12.544-33.28-12.416-31.317333-12.074667-41.728-16.554666a2964.736 2964.736 0 0 1-70.314667-29.184 42.666667 42.666667 0 0 1-9.386667-72.704c58.794667-46.08 113.92-99.072 160.512-148.010667l22.528-24.064c3.669333-3.925333 7.253333-7.850667 10.709334-11.690667l20.138666-22.485333 9.386667-10.752 25.344-29.653333 14.378667-17.322667a132.096 132.096 0 0 1 127.189333-46.378667l8.490667 1.962667 31.445333 8.405333 115.370667-283.733333z m-168.917334 357.76a46.506667 46.506667 0 0 0-47.616 16.128l-10.368 12.501333 230.314667 61.696-2.005333-16.725333a702.592 702.592 0 0 0-1.066667-7.765333c-1.536-10.794667-9.173333-20.949333-21.76-26.026667l-4.949333-1.621333-142.549334-38.186667zM237.44 329.216l2.730667 5.973333A139.093333 139.093333 0 0 0 292.949333 393.386667l4.266667 2.474666a2.901333 2.901333 0 0 1 0 5.034667l-4.266667 2.474667A139.093333 139.093333 0 0 0 240.213333 461.653333l-2.730666 5.930667a3.029333 3.029333 0 0 1-5.546667 0l-2.730667-5.973333a139.093333 139.093333 0 0 0-52.778666-58.197334l-4.266667-2.474666a2.901333 2.901333 0 0 1 0-5.034667l4.266667-2.474667A139.093333 139.093333 0 0 0 229.12 335.146667l2.730667-5.930667a3.029333 3.029333 0 0 1 5.546666 0z m120.832-207.317333c1.706667-3.84 7.082667-3.84 8.789333 0l4.352 9.472a221.397333 221.397333 0 0 0 84.053334 92.629333l6.698666 3.968a4.608 4.608 0 0 1 0 8.064l-6.741333 3.925333a221.397333 221.397333 0 0 0-84.053333 92.672l-4.266667 9.472a4.821333 4.821333 0 0 1-8.832 0l-4.352-9.472a221.397333 221.397333 0 0 0-84.053333-92.672l-6.741334-3.925333a4.608 4.608 0 0 1 0-8.064l6.784-3.968a221.397333 221.397333 0 0 0 84.053334-92.629333l4.266666-9.472z" /></svg>